Coordinates
version=1
nRows=17
nColumns=34
inDegrees=yes

Units are S.I. units (second, meters, Newtons, ...)
If the header above contains a line with 'inDegrees', this indicates whether rotational values are in degrees (yes) or radians (no).

endheader
time	pelvis_tilt	pelvis_list	pelvis_rotation	pelvis_tx	pelvis_ty	pelvis_tz	hip_flexion_r	hip_adduction_r	hip_rotation_r	knee_angle_r	ankle_angle_r	subtalar_angle_r	mtp_angle_r	hip_flexion_l	hip_adduction_l	hip_rotation_l	knee_angle_l	ankle_angle_l	subtalar_angle_l	mtp_angle_l	lumbar_extension	lumbar_bending	lumbar_rotation	arm_flex_r	arm_add_r	arm_rot_r	elbow_flex_r	pro_sup_r	arm_flex_l	arm_add_l	arm_rot_l	elbow_flex_l	pro_sup_l
      5.47500000	    -29.75011523	    -27.39815104	      6.23333627	     -8.64534660	      1.12578173	      0.87797913	     63.60116582	      4.07498881	    -32.82838667	     57.96073546	     32.33584899	      0.61123115	      0.00000000	    -12.74370116	    -22.34683025	    -17.17287337	      0.00000000	     20.92886441	     19.15803995	      0.00000000	    -14.14909659	     27.31422376	     -5.68073101	    -23.76529874	    -37.56422905	     40.85746474	     22.95071580	     54.25793134	     12.18921685	     -6.35970844	     27.52614332	    115.59948759	    102.02129166
      5.47916670	    -30.05970893	    -27.15067033	      6.79205643	     -8.64399436	      1.12372387	      0.87769133	     64.89565764	      3.09367024	    -32.47176008	     58.71129232	     32.52702291	      1.04340130	      0.00000000	    -12.22075507	    -22.23119381	    -17.50316436	      0.00000000	     20.84917336	     20.09980961	      0.00000000	    -14.31894270	     26.51964701	     -4.34423497	    -24.67314572	    -38.38727698	     44.41764019	     25.90044828	     54.18229716	     14.73736676	     -5.30476010	     28.31464576	    113.77832635	    100.57818210
      5.48333330	    -30.35915524	    -27.07368938	      7.15508624	     -8.64136341	      1.12112370	      0.87725641	     66.10139801	      2.38618604	    -32.14592304	     59.61416266	     32.72394385	      1.26099074	      0.00000000	    -11.88752886	    -22.25785710	    -18.10573656	      0.00000000	     20.76162755	     20.98741558	      0.00000000	    -14.34414045	     25.95791139	     -3.04259465	    -25.49385712	    -39.31191092	     48.02955120	     28.92615097	     53.99690367	     17.01666704	     -3.99569015	     28.62743046	    111.93575293	     99.17094286
      5.48750000	    -30.49475964	    -26.98903969	      7.41572641	     -8.63741622	      1.11891617	      0.87639504	     67.08317822	      1.83306899	    -31.73462015	     60.78393020	     33.10721072	      1.25353595	      0.00000000	    -11.87557574	    -22.24500979	    -18.73409646	      0.00000000	     20.63067083	     21.49689346	      0.00000000	    -14.39246023	     25.53923154	     -3.14761391	    -23.32866680	    -41.48711005	     59.66042315	     31.64696574	     49.05329291	     18.30731360	     -3.06025111	     27.85770802	    111.02617952	     92.44313096
      5.49166670	    -30.71143839	    -27.14202277	      7.34699793	     -8.63230521	      1.11643022	      0.87531027	     68.02931805	      1.72213954	    -31.38672049	     61.95032633	     33.33419070	      1.08464295	      0.00000000	    -12.02723935	    -22.41975839	    -19.73139262	      0.00000000	     20.65281571	     22.07553301	      0.00000000	    -14.12938606	     25.61080475	     -1.94072182	    -24.42251073	    -42.47360889	     61.24196191	     34.31018300	     48.45192984	     20.14842275	     -1.57494247	     27.66788830	    108.81709435	     92.39364292
      5.49583330	    -30.72942581	    -27.24666389	      7.09886231	     -8.62649528	      1.11371393	      0.87403444	     68.69093942	      1.85631571	    -30.92414588	     63.26675429	     33.67764154	      0.74930086	      0.00000000	    -12.56312581	    -22.51302279	    -20.62266981	      0.00000000	     20.67217164	     22.29979627	      0.00000000	    -14.07340695	     25.74414575	     -0.83037267	    -25.18362634	    -43.57466624	     63.43246163	     36.66434893	     47.89052817	     21.82271388	     -0.16411384	     27.21123247	    106.88910791	     92.29281646
      5.50000000	    -30.73035593	    -27.35188837	      6.64607584	     -8.62025837	      1.11134178	      0.87256669	     69.20014107	      2.23682133	    -30.39184612	     64.53174734	     33.98319450	      0.27169188	      0.00000000	    -13.24630914	    -22.56555787	    -21.45800185	      0.00000000	     20.68468428	     22.42645932	      0.00000000	    -13.91486589	     25.98771500	     -0.00291294	    -25.51555468	    -44.79002683	     66.21714206	     38.76504570	     47.15220254	     23.31748848	      1.01377121	     26.41253481	    105.02988459	     92.18111774
      5.50416670	    -30.69927466	    -27.22952389	      5.98387026	     -8.61388962	      1.10904568	      0.87125435	     69.58512900	      2.74378441	    -29.60067767	     65.78198601	     34.16900739	     -0.20139479	      0.00000000	    -14.10220225	    -22.31161006	    -22.05279984	      0.00000000	     21.11102273	     22.11668394	      0.00000000	    -13.51937537	     25.93973474	     -2.13958033	    -18.15271666	    -47.71101090	     83.58987873	     41.61885708	     37.28006259	     23.26409175	      0.52634361	     23.53195102	    105.44919960	     91.85296258
      5.50833330	    -30.84021105	    -27.22422291	      5.08376197	     -8.60756483	      1.10668641	      0.86968881	     69.99392558	      3.43422791	    -28.92346576	     66.84506443	     34.45633693	     -0.44744566	      0.00000000	    -14.87998864	    -22.10508667	    -22.57001805	      0.00000000	     21.31594579	     21.61511129	      0.00000000	    -13.11769708	     26.21536442	     -1.47686079	    -18.17469904	    -48.84084409	     84.73266458	     43.25337316	     35.61752400	     24.71343112	      1.20934457	     22.47971690	    103.31633209	     92.11450182
      5.51250000	    -30.83043875	    -27.07205072	      4.17014265	     -8.60161550	      1.10478832	      0.86812791	     70.21662889	      4.18030684	    -28.07067495	     67.74271928	     34.30092602	     -1.14106673	      0.00000000	    -15.83586992	    -21.70748002	    -22.83160817	      0.00000000	     21.71430526	     21.04637290	      0.00000000	    -12.86242720	     26.29508477	     -2.74515208	    -11.80298695	    -50.44285789	     97.17527139	     45.71521443	     23.92406596	     25.25488597	      0.68788146	     19.75103772	    103.03500066	     93.78325867
      5.51666670	    -31.00665729	    -26.85705966	      3.19050882	     -8.59617811	      1.10240927	      0.86643788	     70.61292180	      4.78278211	    -27.24647240	     68.63298307	     34.32939089	     -1.51801596	      0.00000000	    -16.59584301	    -21.18685565	    -22.70891931	      0.00000000	     22.43128342	     20.21507474	      0.00000000	    -12.62851039	     26.34392569	     -2.08680799	    -11.33758793	    -51.36517063	     97.73269734	     46.90219871	     23.71388290	     26.85604765	      1.01939686	     18.44334468	    101.18262871	     93.71372088
      5.52083330	    -31.10732457	    -26.62035088	      2.23164877	     -8.59172278	      1.09944387	      0.86500834	     70.98686668	      5.38688972	    -26.39288163	     69.37963464	     34.21028027	     -1.92315504	      0.00000000	    -17.33437565	    -20.64643082	    -22.35541232	      0.10172328	     23.33794480	     19.24699608	      0.00000000	    -12.55425094	     26.24456404	     -1.26145748	    -10.26769362	    -52.31313645	     98.94546239	     48.55964494	     23.46991565	     29.01469059	      1.01454019	     17.82964766	     98.98301282	     93.70063190
      5.52500000	    -31.29877651	    -26.27884544	      1.28857526	     -8.58792236	      1.09744737	      0.86356427	     71.47724432	      5.86064213	    -25.47778118	     70.03374579	     34.06363742	     -2.26603168	      0.00000000	    -17.76742114	    -20.03041577	    -21.79570625	      0.41069984	     24.50346297	     18.44269361	      0.00000000	    -12.05489599	     26.03281217	     -3.38928954	      0.33066611	    -53.39424142	    114.12459136	     52.05255946	     17.31596814	     29.59815437	     -0.53194311	     14.89208750	     98.52542912	     93.22106831
      5.52916670	    -31.24316782	    -25.92703835	      0.59716261	     -8.58490727	      1.09518693	      0.86197163	     71.83614312	      6.16596264	    -24.59437050	     70.64094531	     33.82458188	     -2.74512796	      0.00000000	    -18.25798445	    -19.45970058	    -20.66207833	      0.84453058	     25.76803323	     17.26597533	      0.00000000	    -12.27581746	     25.62500319	     -2.32711773	      1.94239606	    -54.27282729	    114.46666888	     54.15376818	     17.09162701	     32.48204070	     -0.79192208	     15.12728811	     95.51831935	     93.36403786
      5.53333330	    -31.10443520	    -25.51969118	      0.04061221	     -8.58214508	      1.09296465	      0.86044384	     72.22042800	      6.37843148	    -23.64793062	     71.27439657	     33.63211356	     -3.22797913	      0.00000000	    -18.69592769	    -18.86285708	    -19.26969600	      1.23878705	     27.28740048	     16.09990174	      0.00000000	    -12.57824618	     25.02550580	     -1.24768307	      4.04714034	    -55.01751644	    115.29451322	     56.29075691	     16.92575339	     35.58958147	     -1.02167521	     15.71223016	     91.99950590	     93.48333485
      5.53750000	    -30.82530010	    -25.08657438	     -0.31391765	     -8.57908035	      1.09090919	      0.85884960	     72.54626195	      6.48500085	    -22.67627211	     71.93965379	     33.47603239	     -3.78027385	      0.00000000	    -19.10812117	    -18.29446792	    -17.65052083	      1.69721948	     28.94581046	     14.96796548	      0.00000000	    -13.00457501	     24.34229825	     -0.29849470	      6.68006205	    -55.67909924	    116.44945239	     58.55557978	     16.81483513	     38.89357950	     -1.30529717	     16.68414123	     88.05718482	     93.59194905
      5.54166670	    -30.43281399	    -24.62361914	     -0.49276399	     -8.57524281	      1.08925036	      0.85720856	     72.77849094	      6.52343156	    -21.66158989	     72.64379338	     33.39467797	     -4.40711375	      0.00000000	    -19.51888617	    -17.74675492	    -15.90854841	      2.22849581	     30.66285916	     13.89160072	      0.00000000	    -13.52762914	     23.59860359	      0.45508203	      9.82916103	    -56.19753063	    117.94538494	     60.73837415	     16.74881008	     42.25735039	     -1.66189749	     18.00292542	     83.75321904	     93.68311936
